<?xml version="1.0" encoding="UTF-8"?>
<svg width="24px" height="24px" viewBox="0 0 24 24" version="1.1" xmlns="http://www.w3.org/2000/svg" xmlns:xlink="http://www.w3.org/1999/xlink">
    <g stroke="none" stroke-width="1" fill="none" fill-rule="evenodd">
        <path d="M20.52 3.449C18.24 1.245 15.24 0 12.045 0 5.46 0 0.102 5.357 0.102 11.942c0 2.096 0.547 4.142 1.588 5.945L0 24l6.335-1.652c1.746 0.943 3.71 1.444 5.71 1.447h0.006c6.585 0 11.942-5.357 11.942-11.942 0-3.176-1.24-6.165-3.495-8.411zM12.04 21.891h-0.003c-1.77 0-3.524-0.48-5.055-1.388l-0.361-0.214-3.75 0.984 0.998-3.648-0.235-0.374c-0.99-1.576-1.512-3.391-1.512-5.26 0-5.445 4.455-9.885 9.942-9.885 2.654 0 5.145 1.035 7.021 2.91 1.875 1.859 2.909 4.35 2.909 6.99-0.004 5.444-4.46 9.885-9.935 9.885zM17.507 14.711c-0.296-0.149-1.758-0.868-2.03-0.967-0.273-0.099-0.471-0.149-0.669 0.149-0.198 0.297-0.768 0.967-0.941 1.165-0.173 0.198-0.347 0.223-0.645 0.074-0.297-0.149-1.255-0.462-2.39-1.475-0.884-0.788-1.48-1.761-1.653-2.059-0.173-0.297-0.018-0.458 0.13-0.606 0.134-0.133 0.297-0.347 0.446-0.521 0.149-0.174 0.198-0.298 0.298-0.497 0.099-0.198 0.05-0.372-0.025-0.521-0.075-0.149-0.669-1.612-0.916-2.207-0.242-0.579-0.487-0.501-0.669-0.51-0.173-0.008-0.372-0.01-0.571-0.01-0.198 0-0.52 0.074-0.792 0.372-0.272 0.297-1.04 1.016-1.04 2.479 0 1.462 1.065 2.875 1.213 3.074 0.149 0.198 2.096 3.2 5.077 4.487 0.709 0.306 1.262 0.489 1.694 0.625 0.712 0.227 1.36 0.195 1.871 0.118 0.571-0.085 1.758-0.719 2.006-1.413 0.248-0.694 0.248-1.289 0.173-1.413-0.074-0.124-0.272-0.198-0.57-0.347z" fill="#FFFFFF"/>
    </g>
</svg> 